<svg width="22" height="20" viewBox="0 0 22 20" fill="none" xmlns="http://www.w3.org/2000/svg">
<path d="M8.8425 0H2.11408C1.81666 0 1.53143 0.117063 1.32113 0.325437C1.11082 0.533811 0.992676 0.816426 0.992676 1.11111V7.77778C0.992676 8.07246 1.11082 8.35508 1.32113 8.56345C1.53143 8.77183 1.81666 8.88889 2.11408 8.88889H8.8425C9.13992 8.88889 9.42515 8.77183 9.63546 8.56345C9.84576 8.35508 9.96391 8.07246 9.96391 7.77778V1.11111C9.96391 0.816426 9.84576 0.533811 9.63546 0.325437C9.42515 0.117063 9.13992 0 8.8425 0ZM7.7211 6.66667H3.23548V2.22222H7.7211V6.66667ZM20.0565 0H13.3281C13.0307 0 12.7455 0.117063 12.5352 0.325437C12.3249 0.533811 12.2067 0.816426 12.2067 1.11111V7.77778C12.2067 8.07246 12.3249 8.35508 12.5352 8.56345C12.7455 8.77183 13.0307 8.88889 13.3281 8.88889H20.0565C20.354 8.88889 20.6392 8.77183 20.8495 8.56345C21.0598 8.35508 21.1779 8.07246 21.1779 7.77778V1.11111C21.1779 0.816426 21.0598 0.533811 20.8495 0.325437C20.6392 0.117063 20.354 0 20.0565 0ZM18.9351 6.66667H14.4495V2.22222H18.9351V6.66667ZM8.8425 11.1111H2.11408C1.81666 11.1111 1.53143 11.2282 1.32113 11.4365C1.11082 11.6449 0.992676 11.9275 0.992676 12.2222V18.8889C0.992676 19.1836 1.11082 19.4662 1.32113 19.6746C1.53143 19.8829 1.81666 20 2.11408 20H8.8425C9.13992 20 9.42515 19.8829 9.63546 19.6746C9.84576 19.4662 9.96391 19.1836 9.96391 18.8889V12.2222C9.96391 11.9275 9.84576 11.6449 9.63546 11.4365C9.42515 11.2282 9.13992 11.1111 8.8425 11.1111ZM7.7211 17.7778H3.23548V13.3333H7.7211V17.7778ZM16.6923 11.1111C14.2185 11.1111 12.2067 13.1044 12.2067 15.5556C12.2067 18.0067 14.2185 20 16.6923 20C19.1661 20 21.1779 18.0067 21.1779 15.5556C21.1779 13.1044 19.1661 11.1111 16.6923 11.1111ZM16.6923 17.7778C15.4554 17.7778 14.4495 16.7811 14.4495 15.5556C14.4495 14.33 15.4554 13.3333 16.6923 13.3333C17.9292 13.3333 18.9351 14.33 18.9351 15.5556C18.9351 16.7811 17.9292 17.7778 16.6923 17.7778Z" fill="#212529"/>
</svg>
